<svg width="128" height="128" viewBox="0 0 128 128" fill="none" xmlns="http://www.w3.org/2000/svg">
<path d="M121.8 41.6C125.7 37.7 123.9 29.6 120 25.7L102.3 8.00001C98.4 4.10001 90.3 2.30001 86.4 6.20001L78 14.5L113.5 50L121.8 41.6Z" fill="#938993"/>
<path d="M56.4 107.1L20.9 71.6L71.8 20.8L94.4 35.1L107.2 56.2L56.4 107.1Z" fill="#EC7BB0"/>
<path d="M20.9 71.6L21 71.5C26.5 69.3 32 74.8 29.8 80.3L29.7 80.4C39.8 79.6 48.3 88 47.4 98.1L47.7 98C53.3 95.9 58.6 101.5 56.3 107L5.9 123.9C4.7 124.3 3.6 123.2 4 122L20.9 71.6Z" fill="#EFD1AF"/>
<path d="M113.449 50.0144L77.9528 14.5179L71.6596 20.8111L107.156 56.3076L113.449 50.0144Z" fill="#FFFEFE"/>
<g opacity="0.2">
<path opacity="0.2" d="M4.8 123.8C4.5 123.7 4.3 123.4 4.1 123.1L29.7 80.4L93.7 16.4L93.8 16.2C95.4 10.8 90.4 5.8 85 7.4L84.8 7.5L75.8 16.5L74.8 17.5L20.8 71.5L4.1 122.1C3.7 123.2 4.8 123.8 4.8 123.8Z" fill="#FDFDFC"/>
</g>
<path opacity="0.2" d="M111.9 34.1L111.6 34.2L47.6 98.2L4.8 123.8C5.1 124 5.5 124 5.9 123.9L15.6 120.7L56.3 107.1L113.5 50L115.6 47.9L120.4 43.1C122.2 37.7 117.3 32.6 111.9 34.1Z" fill="#593055"/>
<path d="M113.5 51C113.2 51 113 50.9 112.8 50.7L77.3 15.2C77.1 15 77 14.8 77 14.5C77 14.2 77.1 14 77.3 13.8L85.6 5.5C87.3 3.8 89.6 3 92.3 3C96.2 3 100.4 4.7 103 7.3L120.7 25C122.8 27.1 124.3 30.3 124.8 33.5C125.4 37.2 124.5 40.3 122.5 42.3L114.2 50.6C114 50.9 113.7 51 113.5 51ZM79.4 14.5L113.5 48.6L121.1 41C122.6 39.5 123.3 36.9 122.8 33.9C122.4 31.1 121 28.3 119.3 26.5L101.6 8.7C99.4 6.5 95.6 5 92.3 5C90.8 5 88.6 5.3 87.1 6.9L79.4 14.5Z" fill="#62355C"/>
<path d="M20.9 72.6C20.6 72.6 20.4 72.5 20.2 72.3C19.8 71.9 19.8 71.3 20.2 70.9L71 20.1C71.4 19.7 72 19.7 72.4 20.1C72.8 20.5 72.8 21.1 72.4 21.5L21.6 72.3C21.4 72.5 21.1 72.6 20.9 72.6Z" fill="#62355C"/>
<path d="M56.4 108.1C56.1 108.1 55.9 108 55.7 107.8C55.3 107.4 55.3 106.8 55.7 106.4L106.6 55.5C107 55.1 107.6 55.1 108 55.5C108.4 55.9 108.4 56.5 108 56.9L57.1 107.8C56.9 108 56.6 108.1 56.4 108.1Z" fill="#62355C"/>
<path d="M113.5 51C113.2 51 113 50.9 112.8 50.7C112.4 50.3 112.4 49.7 112.8 49.3L119.5 42.6C120.1 40.5 119.6 38.4 118.1 36.8C116.5 35.2 114.3 34.5 112.1 35.2L111.8 35.3C111.5 35.4 111.2 35.3 110.9 35.1C110.7 34.9 110.5 34.6 110.5 34.3C110.2 25.2 102.9 17.8 93.7 17.5C93.4 17.5 93.1 17.3 92.9 17.1C92.7 16.9 92.7 16.5 92.8 16.2L92.9 16C93.6 13.8 93 11.6 91.4 10C89.8 8.40001 87.6 7.90001 85.5 8.50001L78.8 15.2C78.4 15.6 77.8 15.6 77.4 15.2C77 14.8 77 14.2 77.4 13.8L84.3 6.90001C84.4 6.80001 84.6 6.7 84.7 6.7L84.9 6.60001C87.8 5.70001 90.8 6.50001 92.9 8.60001C94.8 10.5 95.6 13 95.1 15.6C104.3 16.5 111.6 23.8 112.5 33C115.1 32.6 117.7 33.4 119.6 35.4C121.7 37.6 122.4 40.6 121.4 43.5C121.4 43.6 121.3 43.8 121.2 43.9L114.3 50.8C114 50.9 113.7 51 113.5 51Z" fill="#62355C"/>
<path d="M107.2 57.2C106.9 57.2 106.7 57.1 106.5 56.9L71 21.5C70.6 21.1 70.6 20.5 71 20.1L77.3 13.8C77.7 13.4 78.3 13.4 78.7 13.8L114.2 49.3C114.6 49.7 114.6 50.3 114.2 50.7L107.9 57C107.7 57.1 107.5 57.2 107.2 57.2ZM73.2 20.8L107.3 54.9L112.1 50.1L78 15.9L73.2 20.8Z" fill="#62355C"/>
<path d="M5.5 125C4.7 125 4 124.6 3.5 124C3 123.3 2.9 122.5 3.2 121.8L20 71.4C20.1 71.1 20.3 70.9 20.6 70.8L20.7 70.7C21.7 70.3 22.6 70.1 23.6 70.1C26.2 70.1 28.6 71.4 30 73.6C31.2 75.4 31.6 77.5 31.1 79.5C35.9 79.5 40.6 81.6 43.9 85.1C46.9 88.4 48.5 92.5 48.5 96.9C51.6 96.2 54.8 97.6 56.6 100.2C58 102.4 58.3 105.1 57.2 107.5C57.1 107.8 56.9 108 56.6 108.1L6.3 124.9C6 125 5.7 125 5.5 125ZM21.7 72.4L5 122.4C4.9 122.6 5 122.7 5.1 122.8C5.2 123 5.4 123 5.6 123L55.6 106.3C56.2 104.6 56 102.8 55 101.3C53.5 99.1 50.7 98.1 48.1 99.1L47.8 99.2C47.5 99.3 47.1 99.3 46.8 99.1C46.5 98.9 46.4 98.6 46.4 98.2C46.8 93.8 45.3 89.7 42.4 86.5C39.2 83 34.6 81.2 29.8 81.6C29.5 81.6 29.1 81.5 28.9 81.2C28.7 80.9 28.6 80.6 28.8 80.2L28.9 80.1C29.6 78.3 29.4 76.3 28.4 74.8C26.9 72.5 24.2 71.5 21.7 72.4Z" fill="#62355C"/>
<path d="M7.3 112.3L4.1 122C3.7 123.2 4.8 124.3 6 123.9L15.7 120.7L7.3 112.3Z" fill="#62355C"/>
</svg>
