<svg width="75" height="75" viewBox="0 0 128 128" fill="none" xmlns="http://www.w3.org/2000/svg">
<path d="M117.333 16H10.6667C4.78385 16 0 20.7839 0 26.6667V101.333C0 107.216 4.78385 112 10.6667 112H117.333C123.216 112 128 107.216 128 101.333V26.6667C128 20.7839 123.216 16 117.333 16Z" fill="#303C42"/>
<path d="M5.33333 26.6667C5.33333 23.7266 7.72656 21.3333 10.6667 21.3333H117.333C120.273 21.3333 122.667 23.7266 122.667 26.6667V92.2292L81.8854 51.4479C80.8437 50.4062 79.1562 50.4062 78.1146 51.4479L45.3333 84.2292L33.8854 72.7812C32.8437 71.7396 31.1562 71.7396 30.1146 72.7812L5.33333 97.5625V26.6667Z" fill="#EC7BB0"/>
<path d="M117.333 106.667H10.6667C8.79231 106.667 7.2194 105.637 6.2679 104.17L32 78.4375L48.7812 95.2188C49.8229 96.2604 51.5104 96.2604 52.5521 95.2188C53.5937 94.1771 53.5937 92.4896 52.5521 91.4479L49.1042 88L80 57.1042L122.667 99.7708V101.333C122.667 104.273 120.273 106.667 117.333 106.667Z" fill="#938993"/>
<path opacity="0.1" d="M120.729 97.8333C119.768 99.2435 118.229 100.229 116.399 100.229H10.2083L6.2679 104.17C7.2194 105.637 8.79231 106.667 10.6667 106.667H117.333C120.273 106.667 122.667 104.273 122.667 101.333V99.7708L120.729 97.8333Z" fill="#010101"/>
<path d="M42.6667 64C51.5032 64 58.6667 56.8366 58.6667 48C58.6667 39.1634 51.5032 32 42.6667 32C33.8301 32 26.6667 39.1634 26.6667 48C26.6667 56.8366 33.8301 64 42.6667 64Z" fill="#303C42"/>
<path d="M42.6667 58.6667C48.5577 58.6667 53.3333 53.891 53.3333 48C53.3333 42.109 48.5577 37.3333 42.6667 37.3333C36.7756 37.3333 32 42.109 32 48C32 53.891 36.7756 58.6667 42.6667 58.6667Z" fill="#FFCB29"/>
<path opacity="0.1" d="M79.889 57.2152L92.1683 69.2725L80 57.1042L79.889 57.2152Z" fill="#010101"/>
<path d="M117.333 16H10.6667C4.78385 16 0 20.7839 0 26.6667V101.333C0 107.216 4.78385 112 10.6667 112H117.333C123.216 112 128 107.216 128 101.333V26.6667C128 20.7839 123.216 16 117.333 16Z" fill="url(#paint0_linear_1_113)"/>
<defs>
<linearGradient id="paint0_linear_1_113" x1="-3.7743" y1="32.3963" x2="131.774" y2="95.6037" gradientUnits="userSpaceOnUse">
<stop stop-color="white" stop-opacity="0.2"/>
<stop offset="1" stop-color="white" stop-opacity="0"/>
</linearGradient>
</defs>
</svg>
