<svg width="75" height="75" viewBox="0 0 128 128" fill="none" xmlns="http://www.w3.org/2000/svg">
<path d="M64 126C98.2417 126 126 98.2417 126 64C126 29.7583 98.2417 2 64 2C29.7583 2 2 29.7583 2 64C2 98.2417 29.7583 126 64 126Z" fill="#EFEFEF"/>
<path d="M55.6 45.3C66.3 41.2 76.2 33.4 72.8 16.5L67.6 2.1C66.4 2 65.2 2 64 2C46.1 2 30 9.6 18.6 21.7L21.9 30.2C27.1 43.7 42.2 50.5 55.6 45.3Z" fill="#EAC39C"/>
<path opacity="0.2" d="M56.1 45.3C65.3 41.8 73.9 35.6 74 23.2C74 19.8 73.3 16.5 72.2 13.3L68.2 2.2C66.7 2.1 65.4 2 64 2C46.3 2 30.3 9.5 19 21.4L22.4 30.3C27.5 43.7 42.6 50.5 56.1 45.3Z" fill="#593055"/>
<path d="M46.3 48.3C49.6 48.3 52.9 47.7 56.1 46.5C68.4 41.8 74.7 34 74.8 23.2C74.8 19.9 74.2 16.5 72.9 12.9L69 2.2C68.1 2.1 67.2 2.1 66.3 2L70.5 13.7C71.7 17 72.3 20.2 72.3 23.2C72.2 32.9 66.6 39.8 55.2 44.2C52.3 45.3 49.4 45.8 46.3 45.8C36.1 45.8 26.7 39.4 23.1 29.8L19.6 20.7C19 21.4 18.3 22 17.7 22.7L20.7 30.6C24.8 41.2 35 48.3 46.3 48.3Z" fill="#62355C"/>
<path d="M64 102.8C86.0914 102.8 104 84.8914 104 62.8C104 40.7086 86.0914 22.8 64 22.8C41.9086 22.8 24 40.7086 24 62.8C24 84.8914 41.9086 102.8 64 102.8Z" fill="#F6CD29"/>
<path d="M64 102.8C86.0914 102.8 104 84.8914 104 62.8C104 40.7086 86.0914 22.8 64 22.8C41.9086 22.8 24 40.7086 24 62.8C24 84.8914 41.9086 102.8 64 102.8Z" fill="#EC7BB0"/>
<path d="M64 21.6C41.3 21.6 22.8 40.1 22.8 62.8C22.8 85.5 41.3 104 64 104C86.7 104 105.2 85.5 105.2 62.8C105.2 40.1 86.8 21.6 64 21.6ZM64 101.6C42.6 101.6 25.3 84.2 25.3 62.9C25.3 41.6 42.7 24.1 64 24.1C85.3 24.1 102.7 41.5 102.7 62.8C102.7 84.1 85.4 101.6 64 101.6Z" fill="#62355C"/>
<g opacity="0.3">
<path opacity="0.3" d="M64 31.9C46.9 31.9 33 45.8 33 62.9C33 80 46.9 93.9 64 93.9C81.1 93.9 95 80 95 62.9C95 45.8 81.1 31.9 64 31.9Z" fill="#F6F7F6"/>
</g>
<path d="M64 30.6C46.2 30.6 31.8 45.1 31.8 62.8C31.8 80.5 46.2 95.1 64 95.1C81.8 95.1 96.2 80.6 96.2 62.9C96.2 45.2 81.8 30.6 64 30.6ZM64 92.6C47.6 92.6 34.3 79.3 34.3 62.9C34.3 46.5 47.6 33.1 64 33.1C80.4 33.1 93.7 46.4 93.7 62.8C93.7 79.2 80.4 92.6 64 92.6Z" fill="#62355C"/>
<path d="M69.4 63.1C68.5 62.5 67.5 62.1 66.5 61.8C65.6 61.5 64.7 61.3 63.7 61C62.9 60.8 62 60.5 61.2 60.2C60.6 60 60 59.6 59.5 59.2C59.1 58.9 58.8 58.4 58.5 57.8C58.3 57.4 58.1 56.7 58.1 55.4C58.1 54.7 58.2 54.1 58.4 53.5C58.6 52.9 59 52.4 59.4 51.9C59.8 51.4 60.4 51 61.1 50.7C61.8 50.4 62.7 50.2 63.8 50.2C64.8 50.2 65.7 50.4 66.4 50.7C67.1 51 67.6 51.4 68.1 51.9C68.5 52.4 68.9 53 69.1 53.8C69.4 54.6 70.2 55 71 54.8C71.8 54.5 72.2 53.7 72 52.9C71.7 51.8 71.1 50.9 70.4 50C69.7 49.2 68.8 48.5 67.7 48C67 47.7 66.2 47.5 65.3 47.4V46.3C65.3 45.5 64.6 44.8 63.8 44.8C63 44.8 62.3 45.5 62.3 46.3V47.4C61.5 47.5 60.7 47.7 60 48C58.9 48.5 58 49.1 57.2 49.9C56.5 50.7 55.9 51.5 55.6 52.5C55.2 53.5 55.1 54.5 55.1 55.5C55.1 56.9 55.3 58.2 55.8 59.1C56.2 60.1 56.8 60.9 57.6 61.5C58.3 62.1 59.2 62.6 60.1 63C61 63.4 61.9 63.7 62.9 63.9C63.8 64.2 64.7 64.4 65.6 64.7C66.4 64.9 67.2 65.3 67.8 65.7C68.4 66.1 68.9 66.6 69.3 67.3C69.7 68 69.9 68.8 69.9 69.9C69.9 70.7 69.8 71.4 69.6 72.1C69.4 72.8 69 73.4 68.6 73.9C68.2 74.4 67.6 74.8 66.9 75.1C66.2 75.4 65.4 75.5 64.4 75.5C63.6 75.5 62.8 75.4 62 75.2C61.3 75 60.6 74.6 60.1 74.1C59.5 73.6 59.1 72.9 58.7 72C58.4 71.2 57.5 70.9 56.7 71.2C55.9 71.5 55.6 72.4 55.9 73.2C56.4 74.4 57.2 75.5 58 76.3C58.9 77.1 59.9 77.7 61 78C61.4 78.1 61.9 78.2 62.4 78.3V79.5C62.4 80.3 63.1 81 63.9 81C64.7 81 65.4 80.3 65.4 79.5V78.4C66.3 78.3 67.2 78.1 68 77.8C69.1 77.3 70.1 76.7 70.8 75.9C71.5 75.1 72.1 74.1 72.4 73C72.7 72 72.9 70.9 72.9 69.8C72.9 68.2 72.6 66.8 71.9 65.6C71.2 64.6 70.4 63.7 69.4 63.1Z" fill="#62355C"/>
<path d="M51.6 54.4C59.5 45.9 65 34.3 54.2 20.4L40 6.8C22.8 14.1 9.59999 28.8 4.39999 47L14.1 55.9C24.9 65.8 41.7 65.1 51.6 54.4Z" fill="#EAC39C"/>
<path d="M32.1 64.2C39.9 64.2 47.3 60.9 52.5 55.2C63.4 43.3 64.3 31.4 55.1 19.6L41.2 6.3C40.4 6.6 39.5 7 38.7 7.4L53.2 21.2C61.6 32 60.7 42.6 50.7 53.5C45.9 58.7 39.1 61.7 32.1 61.7C25.8 61.7 19.7 59.3 15 55L4.8 45.6C4.5 46.5 4.3 47.4 4 48.3L13.3 56.8C18.4 61.6 25.1 64.2 32.1 64.2Z" fill="#B7936B"/>
<path d="M32.1 64.2C39.9 64.2 47.3 60.9 52.5 55.2C62.5 44.3 64.1 33.3 57.1 22.5C56.1 20.9 54.7 19.3 53.1 17.7L41.2 6.3C40.4 6.6 39.5 7 38.7 7.4L51.4 19.5C52.9 20.9 54.1 22.4 55 23.8C61.3 33.7 59.9 43.4 50.6 53.5C45.8 58.7 39 61.7 32 61.7C25.7 61.7 19.6 59.3 14.9 55L4.8 45.6C4.5 46.5 4.3 47.4 4 48.3L13.3 56.8C18.4 61.6 25.1 64.2 32.1 64.2Z" fill="#62355C"/>
<g opacity="0.5">
<path opacity="0.5" d="M19.1 52.8C25.9 60.4 39.4 60 47.4 51.2C56.3 41.5 56.2 27.5 48.1 21.2C42.8 17.1 37.5 13.2 33.9 10.6C33.7 10.4 33.4 10.3 33.2 10.1C21.7 16.8 12.4 27 7.10001 39.4C7.30001 39.6 7.50001 39.9 7.70001 40.1C10.5 43.2 14.7 47.8 19.1 52.8Z" fill="#F6F5F3"/>
</g>
<path d="M18.2 53.6C21.4 57.2 26.1 59.2 31.4 59.2C37.5 59.2 43.6 56.6 48.4 52.1C53.7 47.1 56.4 40.7 56.1 34.3C55.8 28.7 53.2 23.6 49 20.2C43.7 16.1 38.4 12.2 34.8 9.59999C34.7 9.49999 34.6 9.49999 34.6 9.39999C33.8 9.89999 32.9 10.3 32.1 10.8C32.5 11 33 11.3 33.4 11.6C36.9 14.2 42.3 18 47.5 22.1C51.2 25 53.4 29.4 53.7 34.3C54 40 51.5 45.7 46.7 50.2C42.4 54.3 36.9 56.6 31.5 56.6C26.9 56.6 22.9 54.9 20.2 51.9C15.7 46.9 11.5 42.2 8.70001 39.2C8.40001 38.8 8.10001 38.4 7.80001 38C7.40001 38.9 7.00001 39.7 6.70001 40.6C6.80001 40.7 6.80001 40.8 6.90001 40.8C9.50001 43.9 13.7 48.6 18.2 53.6Z" fill="#62355C"/>
</svg>
