<svg width="75" height="75" viewBox="0 0 128 128" fill="none" xmlns="http://www.w3.org/2000/svg">
<path d="M93 107V116.5C93 120.6 96.4 124 100.5 124C104.6 124 108 120.6 108 116.5V107C105.8 108.3 103.2 109 100.5 109C97.8 109 95.2 108.3 93 107Z" fill="#938993"/>
<path d="M100.5 125C95.8 125 92 121.2 92 116.5V105.2L93.5 106.1C97.8 108.6 103.2 108.6 107.5 106.1L109 105.2V116.5C109 121.2 105.2 125 100.5 125ZM94 108.6V116.5C94 120.1 96.9 123 100.5 123C104.1 123 107 120.1 107 116.5V108.6C102.9 110.4 98.1 110.4 94 108.6Z" fill="#62355C"/>
<path d="M55.5 45.5V116.5C55.5 120.6 58.9 124 63 124C67.1 124 70.5 120.6 70.5 116.5V45.5C68.3 46.8 65.7 47.5 63 47.5C60.3 47.5 57.7 46.8 55.5 45.5Z" fill="#938993"/>
<path d="M63 125C58.3 125 54.5 121.2 54.5 116.5V43.7L56 44.6C60.3 47.1 65.7 47.1 70 44.6L71.5 43.7V116.5C71.5 121.2 67.7 125 63 125ZM56.5 47.1V116.5C56.5 120.1 59.4 123 63 123C66.6 123 69.5 120.1 69.5 116.5V47.1C65.4 48.9 60.6 48.9 56.5 47.1Z" fill="#62355C"/>
<path d="M18 81.5V116.5C18 120.6 21.4 124 25.5 124C29.6 124 33 120.6 33 116.5V81.5C30.8 82.8 28.2 83.5 25.5 83.5C22.8 83.5 20.2 82.8 18 81.5Z" fill="#938993"/>
<path d="M25.5 125C20.8 125 17 121.2 17 116.5V79.7L18.5 80.6C22.8 83.1 28.2 83.1 32.5 80.6L34 79.7V116.5C34 121.2 30.2 125 25.5 125ZM19 83.1V116.5C19 120.1 21.9 123 25.5 123C29.1 123 32 120.1 32 116.5V83.1C27.9 84.9 23.1 84.9 19 83.1Z" fill="#62355C"/>
<path d="M70.5 19.5V11.5C70.5 7.4 67.1 4 63 4C58.9 4 55.5 7.4 55.5 11.5V19.5C57.7 18.2 60.3 17.5 63 17.5C65.7 17.5 68.3 18.2 70.5 19.5Z" fill="white"/>
<path d="M108 81V11.5C108 7.4 104.6 4 100.5 4C96.4 4 93 7.4 93 11.5V81C95.2 79.7 97.8 79 100.5 79C103.2 79 105.8 79.7 108 81Z" fill="white"/>
<g opacity="0.1">
<path opacity="0.1" d="M37.5 59.5C39.4 62 40.5 65.1 40.5 68.5C40.5 76.8 33.8 83.5 25.5 83.5C22.1 83.5 19 82.4 16.5 80.5C19.2 84.1 23.6 86.5 28.5 86.5C36.8 86.5 43.5 79.8 43.5 71.5C43.5 66.6 41.1 62.2 37.5 59.5Z" fill="#0E1015"/>
</g>
<path d="M33 55.5V11.5C33 7.4 29.6 4 25.5 4C21.4 4 18 7.4 18 11.5V55.5C20.2 54.2 22.8 53.5 25.5 53.5C28.2 53.5 30.8 54.2 33 55.5Z" fill="white"/>
<path d="M100.5 125C95.8 125 92 121.2 92 116.5V107C92 106.6 92.2 106.3 92.5 106.1C92.8 105.9 93.2 105.9 93.5 106.1C97.8 108.6 103.2 108.6 107.5 106.1C107.8 105.9 108.2 105.9 108.5 106.1C108.8 106.3 109 106.6 109 107V116.5C109 121.2 105.2 125 100.5 125ZM94 108.6V116.5C94 120.1 96.9 123 100.5 123C104.1 123 107 120.1 107 116.5V108.6C102.9 110.4 98.1 110.4 94 108.6Z" fill="#62355C"/>
<path d="M63 125C58.3 125 54.5 121.2 54.5 116.5V45.5C54.5 45.1 54.7 44.8 55 44.6C55.3 44.4 55.7 44.4 56 44.6C60.3 47.1 65.7 47.1 70 44.6C70.3 44.4 70.7 44.4 71 44.6C71.3 44.8 71.5 45.1 71.5 45.5V116.5C71.5 121.2 67.7 125 63 125ZM56.5 47.1V116.5C56.5 120.1 59.4 123 63 123C66.6 123 69.5 120.1 69.5 116.5V47.1C65.4 48.9 60.6 48.9 56.5 47.1Z" fill="#62355C"/>
<path d="M25.5 125C20.8 125 17 121.2 17 116.5V81.5C17 81.1 17.2 80.8 17.5 80.6C17.8 80.4 18.2 80.4 18.5 80.6C22.8 83.1 28.2 83.1 32.5 80.6C32.8 80.4 33.2 80.4 33.5 80.6C33.8 80.8 34 81.1 34 81.5V116.5C34 121.2 30.2 125 25.5 125ZM19 83.1V116.5C19 120.1 21.9 123 25.5 123C29.1 123 32 120.1 32 116.5V83.1C27.9 84.9 23.1 84.9 19 83.1Z" fill="#62355C"/>
<path d="M70.5 20.5C70.3 20.5 70.2 20.5 70 20.4C65.7 17.9 60.3 17.9 56 20.4C55.7 20.6 55.3 20.6 55 20.4C54.7 20.2 54.5 19.9 54.5 19.5V11.5C54.5 6.8 58.3 3 63 3C67.7 3 71.5 6.8 71.5 11.5V19.5C71.5 19.9 71.3 20.2 71 20.4C70.8 20.5 70.7 20.5 70.5 20.5ZM63 16.5C65.2 16.5 67.5 17 69.5 17.9V11.5C69.5 7.9 66.6 5 63 5C59.4 5 56.5 7.9 56.5 11.5V17.9C58.5 17 60.8 16.5 63 16.5Z" fill="#62355C"/>
<path d="M108 82C107.8 82 107.7 82 107.5 81.9C103.2 79.4 97.8 79.4 93.5 81.9C93.2 82.1 92.8 82.1 92.5 81.9C92.2 81.7 92 81.4 92 81V11.5C92 6.8 95.8 3 100.5 3C105.2 3 109 6.8 109 11.5V81C109 81.4 108.8 81.7 108.5 81.9C108.3 82 108.2 82 108 82ZM100.5 78C102.7 78 105 78.5 107 79.4V11.5C107 7.9 104.1 5 100.5 5C96.9 5 94 7.9 94 11.5V79.4C96 78.5 98.3 78 100.5 78Z" fill="#62355C"/>
<path d="M33 56.5C32.8 56.5 32.7 56.5 32.5 56.4C28.2 53.9 22.8 53.9 18.5 56.4C18.2 56.6 17.8 56.6 17.5 56.4C17.2 56.2 17 55.9 17 55.5V11.5C17 6.8 20.8 3 25.5 3C30.2 3 34 6.8 34 11.5V55.5C34 55.9 33.8 56.2 33.5 56.4C33.3 56.5 33.2 56.5 33 56.5ZM25.5 52.5C27.7 52.5 30 53 32 53.9V11.5C32 7.9 29.1 5 25.5 5C21.9 5 19 7.9 19 11.5V53.9C21 53 23.3 52.5 25.5 52.5Z" fill="#62355C"/>
<g opacity="0.1">
<path opacity="0.1" d="M75 23.5C76.9 26 78 29.1 78 32.5C78 40.8 71.3 47.5 63 47.5C59.6 47.5 56.5 46.4 54 44.5C56.7 48.1 61.1 50.5 66 50.5C74.3 50.5 81 43.8 81 35.5C81 30.6 78.6 26.2 75 23.5Z" fill="#0E1015"/>
</g>
<g opacity="0.1">
<path opacity="0.1" d="M112.5 85C114.4 87.5 115.5 90.6 115.5 94C115.5 102.3 108.8 109 100.5 109C97.1 109 94 107.9 91.5 106C94.2 109.6 98.6 112 103.5 112C111.8 112 118.5 105.3 118.5 97C118.5 92.1 116.1 87.7 112.5 85Z" fill="#0E1015"/>
</g>
<g opacity="0.1">
<path opacity="0.1" d="M21 116.5V11.5C21 7.9 23.6 4.8 27 4.2C26.5 4.1 26 4 25.5 4C21.4 4 18 7.4 18 11.5V116.5C18 120.6 21.4 124 25.5 124C26 124 26.5 123.9 27 123.8C23.6 123.2 21 120.1 21 116.5Z" fill="#0E1015"/>
</g>
<g opacity="0.1">
<path opacity="0.1" d="M96 116.5V11.5C96 7.9 98.6 4.8 102 4.2C101.5 4.1 101 4 100.5 4C96.4 4 93 7.4 93 11.5V116.5C93 120.6 96.4 124 100.5 124C101 124 101.5 123.9 102 123.8C98.6 123.2 96 120.1 96 116.5Z" fill="#0E1015"/>
</g>
<g opacity="0.1">
<path opacity="0.1" d="M58.5 116.5V11.5C58.5 7.9 61.1 4.8 64.5 4.2C64 4.1 63.5 4 63 4C58.9 4 55.5 7.4 55.5 11.5V116.5C55.5 120.6 58.9 124 63 124C63.5 124 64 123.9 64.5 123.8C61.1 123.2 58.5 120.1 58.5 116.5Z" fill="#0E1015"/>
</g>
<path d="M63 47.5C71.2843 47.5 78 40.7843 78 32.5C78 24.2157 71.2843 17.5 63 17.5C54.7157 17.5 48 24.2157 48 32.5C48 40.7843 54.7157 47.5 63 47.5Z" fill="#F1ED7B"/>
<path d="M25.5 83.5C33.7843 83.5 40.5 76.7843 40.5 68.5C40.5 60.2157 33.7843 53.5 25.5 53.5C17.2157 53.5 10.5 60.2157 10.5 68.5C10.5 76.7843 17.2157 83.5 25.5 83.5Z" fill="#EC7BB0"/>
<path d="M100.5 109C108.784 109 115.5 102.284 115.5 94C115.5 85.7157 108.784 79 100.5 79C92.2157 79 85.5 85.7157 85.5 94C85.5 102.284 92.2157 109 100.5 109Z" fill="#99D9E6"/>
<path d="M63 48.5C54.2 48.5 47 41.3 47 32.5C47 23.7 54.2 16.5 63 16.5C71.8 16.5 79 23.7 79 32.5C79 41.3 71.8 48.5 63 48.5ZM63 18.5C55.3 18.5 49 24.8 49 32.5C49 40.2 55.3 46.5 63 46.5C70.7 46.5 77 40.2 77 32.5C77 24.8 70.7 18.5 63 18.5Z" fill="#62355C"/>
<path d="M25.5 84.5C16.7 84.5 9.5 77.3 9.5 68.5C9.5 59.7 16.7 52.5 25.5 52.5C34.3 52.5 41.5 59.7 41.5 68.5C41.5 77.3 34.3 84.5 25.5 84.5ZM25.5 54.5C17.8 54.5 11.5 60.8 11.5 68.5C11.5 76.2 17.8 82.5 25.5 82.5C33.2 82.5 39.5 76.2 39.5 68.5C39.5 60.8 33.2 54.5 25.5 54.5Z" fill="#62355C"/>
<path d="M100.5 110C91.7 110 84.5 102.8 84.5 94C84.5 85.2 91.7 78 100.5 78C109.3 78 116.5 85.2 116.5 94C116.5 102.8 109.3 110 100.5 110ZM100.5 80C92.8 80 86.5 86.3 86.5 94C86.5 101.7 92.8 108 100.5 108C108.2 108 114.5 101.7 114.5 94C114.5 86.3 108.2 80 100.5 80Z" fill="#62355C"/>
</svg>
